<svg width="48" height="48" viewBox="0 0 48 48" fill="none" xmlns="http://www.w3.org/2000/svg">
<path d="M0.743159 12.9433C1.51672 6.52587 6.53064 1.5437 12.9482 0.770711C16.4945 0.343562 20.4502 0 24 0C27.5498 0 31.5055 0.343562 35.0518 0.770711C41.4694 1.5437 46.4833 6.52587 47.2568 12.9433C47.6711 16.3802 48 20.2147 48 23.7273C48 27.3298 47.6541 31.3496 47.2249 34.9506C46.4539 41.4188 41.4199 46.4668 34.9521 47.2413C31.4315 47.6628 27.5166 48 24 48C20.4834 48 16.5685 47.6628 13.0479 47.2413C6.58008 46.4668 1.54609 41.4188 0.775145 34.9506C0.345942 31.3496 0 27.3297 0 23.7273C0 20.2147 0.328884 16.3802 0.743159 12.9433Z" fill="#3B5998"/>
<path d="M30.2037 14.0956H27.1833C25.8482 14.0956 24.5678 14.6259 23.6237 15.57C22.6797 16.5141 22.1493 17.7945 22.1493 19.1296V22.15H19.1289V26.1772H22.1493V34.2316H26.1765V26.1772H29.1969L30.2037 22.15H26.1765V19.1296C26.1765 18.8626 26.2826 18.6065 26.4714 18.4177C26.6602 18.2289 26.9163 18.1228 27.1833 18.1228H30.2037V14.0956Z" fill="white"/>
</svg>
