<svg width="48" height="48" viewBox="0 0 48 48" fill="none" xmlns="http://www.w3.org/2000/svg">
<path d="M0.743159 12.9433C1.51672 6.52587 6.53064 1.5437 12.9482 0.770711C16.4945 0.343562 20.4502 0 24 0C27.5498 0 31.5055 0.343562 35.0518 0.770711C41.4694 1.5437 46.4833 6.52587 47.2568 12.9433C47.6711 16.3802 48 20.2147 48 23.7273C48 27.3298 47.6541 31.3496 47.2249 34.9506C46.4539 41.4188 41.4199 46.4668 34.9521 47.2413C31.4315 47.6628 27.5166 48 24 48C20.4834 48 16.5685 47.6628 13.0479 47.2413C6.58008 46.4668 1.54609 41.4188 0.775145 34.9506C0.345942 31.3496 0 27.3297 0 23.7273C0 20.2147 0.328884 16.3802 0.743159 12.9433Z" fill="#5851DB"/>
<path d="M0.743159 12.9433C1.51672 6.52587 6.53064 1.5437 12.9482 0.770711C16.4945 0.343562 20.4502 0 24 0C27.5498 0 31.5055 0.343562 35.0518 0.770711C41.4694 1.5437 46.4833 6.52587 47.2568 12.9433C47.6711 16.3802 48 20.2147 48 23.7273C48 27.3298 47.6541 31.3496 47.2249 34.9506C46.4539 41.4188 41.4199 46.4668 34.9521 47.2413C31.4315 47.6628 27.5166 48 24 48C20.4834 48 16.5685 47.6628 13.0479 47.2413C6.58008 46.4668 1.54609 41.4188 0.775145 34.9506C0.345942 31.3496 0 27.3297 0 23.7273C0 20.2147 0.328884 16.3802 0.743159 12.9433Z" fill="url(#paint0_radial_816_459)"/>
<path d="M28.1906 23.5294C28.3148 24.3673 28.1717 25.223 27.7815 25.9749C27.3914 26.7268 26.7741 27.3365 26.0175 27.7174C25.2609 28.0982 24.4034 28.2307 23.5671 28.0962C22.7308 27.9616 21.9582 27.5667 21.3592 26.9678C20.7603 26.3688 20.3654 25.5962 20.2308 24.7599C20.0963 23.9236 20.2288 23.0661 20.6097 22.3095C20.9905 21.5529 21.6002 20.9356 22.3521 20.5455C23.104 20.1553 23.9597 20.0122 24.7976 20.1365C25.6523 20.2632 26.4436 20.6615 27.0546 21.2724C27.6655 21.8834 28.0638 22.6747 28.1906 23.5294Z" fill="white"/>
<path fill-rule="evenodd" clip-rule="evenodd" d="M19.1297 14.0956H29.1977C31.978 14.0956 34.2318 16.3494 34.2318 19.1296V29.1976C34.2318 31.9778 31.978 34.2316 29.1977 34.2316H19.1297C16.3495 34.2316 14.0957 31.9778 14.0957 29.1976V19.1296C14.0957 16.3494 16.3495 14.0956 19.1297 14.0956ZM30.2045 24.1636C30.2045 27.4999 27.5 30.2044 24.1637 30.2044C20.8275 30.2044 18.1229 27.4999 18.1229 24.1636C18.1229 20.8274 20.8275 18.1228 24.1637 18.1228C27.5 18.1228 30.2045 20.8274 30.2045 24.1636ZM28.1909 24.1636C28.1909 26.3878 26.3879 28.1908 24.1637 28.1908C21.9396 28.1908 20.1365 26.3878 20.1365 24.1636C20.1365 21.9394 21.9396 20.1364 24.1637 20.1364C26.3879 20.1364 28.1909 21.9394 28.1909 24.1636Z" fill="white"/>
<defs>
<radialGradient id="paint0_radial_816_459" cx="0" cy="0" r="1" gradientUnits="userSpaceOnUse" gradientTransform="translate(3.10651 46.9485) scale(60.9422)">
<stop offset="0.09" stop-color="#FA8F21"/>
<stop offset="0.78" stop-color="#D82D7E"/>
</radialGradient>
</defs>
</svg>
