<svg width="259" height="31" viewBox="0 0 259 31" fill="none" xmlns="http://www.w3.org/2000/svg">
<path d="M12.9711 24V8.288H18.6671V2.656H0.779125V8.288H6.50713V24H12.9711ZM37.0904 24V12.96C37.0904 10.272 35.5224 8.16 31.9384 8.16C29.2184 8.16 27.5224 9.28 26.6264 10.304V2.656H20.8664V24H26.6264V14.464C27.1064 13.92 27.7784 13.248 29.0904 13.248C30.4664 13.248 31.3304 13.792 31.3304 15.392V24H37.0904ZM47.8551 24.384C50.1591 24.384 52.9111 23.776 54.4471 22.464L52.0791 18.912C51.3111 19.584 49.3911 20 48.5271 20C46.6391 20 45.5191 19.04 45.1991 18.048H55.6951V16.864C55.6951 11.424 52.2071 8.16 47.6631 8.16C42.6711 8.16 39.2471 11.776 39.2471 16.256C39.2471 21.344 43.0231 24.384 47.8551 24.384ZM50.2231 14.4H45.1351C45.3271 13.696 45.9031 12.544 47.6631 12.544C49.5191 12.544 50.0631 13.728 50.2231 14.4ZM76.5544 24.384C82.1544 24.384 85.0024 20.992 86.2504 18.144L80.6824 15.584C80.1384 17.248 78.4744 18.688 76.5544 18.688C73.4504 18.688 71.3704 16.32 71.3704 13.344C71.3704 10.368 73.4504 8 76.5544 8C78.4744 8 80.1384 9.44 80.6824 11.104L86.2504 8.512C84.9704 5.568 82.1544 2.304 76.5544 2.304C69.8664 2.304 64.8104 6.752 64.8104 13.344C64.8104 19.904 69.8664 24.384 76.5544 24.384ZM93.9069 24V14.528C94.5469 13.76 96.1149 13.44 97.3309 13.44C97.8749 13.44 98.3549 13.504 98.6429 13.6V8.096C96.8829 8.096 94.8669 9.12 93.9069 10.24V8.544H88.1469V24H93.9069ZM108.168 24.384C110.472 24.384 113.224 23.776 114.76 22.464L112.392 18.912C111.624 19.584 109.704 20 108.84 20C106.952 20 105.832 19.04 105.512 18.048H116.008V16.864C116.008 11.424 112.52 8.16 107.976 8.16C102.984 8.16 99.5596 11.776 99.5596 16.256C99.5596 21.344 103.336 24.384 108.168 24.384ZM110.536 14.4H105.448C105.64 13.696 106.216 12.544 107.976 12.544C109.832 12.544 110.376 13.728 110.536 14.4ZM133.863 24V2.656H128.103V10.176C126.887 8.704 125.319 8.16 123.751 8.16C119.943 8.16 116.935 11.136 116.935 16.256C116.935 21.568 120.007 24.384 123.751 24.384C125.319 24.384 126.791 23.84 128.103 22.368V24H133.863ZM125.703 19.296C124.135 19.296 122.823 18.176 122.823 16.256C122.823 14.336 124.135 13.248 125.703 13.248C126.471 13.248 127.559 13.6 128.103 14.272V18.24C127.559 18.912 126.471 19.296 125.703 19.296ZM139.933 7.424C141.725 7.424 143.165 5.984 143.165 4.192C143.165 2.4 141.725 0.959999 139.933 0.959999C138.141 0.959999 136.701 2.4 136.701 4.192C136.701 5.984 138.141 7.424 139.933 7.424ZM142.813 24V8.544H137.053V24H142.813ZM152.518 24.384C154.47 24.384 155.814 23.904 156.422 23.36L155.398 19.008C155.27 19.136 154.758 19.296 154.246 19.296C153.478 19.296 152.966 18.656 152.966 17.856V13.536H156.102V8.544H152.966V4.32H147.206V8.544H144.646V13.536H147.206V19.52C147.206 22.752 149.094 24.384 152.518 24.384ZM177.565 24V8.288H183.261V2.656H165.373V8.288H171.101V24H177.565ZM201.684 24V12.96C201.684 10.272 200.116 8.16 196.532 8.16C193.812 8.16 192.116 9.28 191.22 10.304V2.656H185.46V24H191.22V14.464C191.7 13.92 192.372 13.248 193.684 13.248C195.06 13.248 195.924 13.792 195.924 15.392V24H201.684ZM207.777 7.424C209.569 7.424 211.009 5.984 211.009 4.192C211.009 2.4 209.569 0.959999 207.777 0.959999C205.985 0.959999 204.545 2.4 204.545 4.192C204.545 5.984 205.985 7.424 207.777 7.424ZM210.657 24V8.544H204.897V24H210.657ZM230.09 24V13.024C230.09 10.336 228.522 8.16 224.938 8.16C222.218 8.16 220.522 9.28 219.626 10.304V8.544H213.866V24H219.626V14.464C220.106 13.92 220.778 13.248 222.09 13.248C223.466 13.248 224.33 13.856 224.33 15.456V24H230.09ZM239.799 30.272C243.639 30.272 249.143 29.024 249.143 22.336V8.544H243.383V10.176C242.135 8.704 240.631 8.16 239.031 8.16C235.223 8.16 232.247 10.72 232.247 15.872C232.247 21.152 235.319 23.584 239.031 23.584C240.631 23.584 242.071 23.008 243.383 21.504V22.336C243.383 25.056 241.143 25.568 239.799 25.568C238.135 25.568 236.375 25.056 235.191 23.872L232.759 27.968C234.775 29.568 237.143 30.272 239.799 30.272ZM241.015 18.496C239.447 18.496 238.135 17.76 238.135 15.872C238.135 13.984 239.447 13.248 241.015 13.248C241.751 13.248 242.839 13.6 243.383 14.24V17.504C242.839 18.144 241.751 18.496 241.015 18.496ZM255.246 24.384C257.102 24.384 258.67 22.816 258.67 20.96C258.67 19.104 257.102 17.536 255.246 17.536C253.39 17.536 251.822 19.104 251.822 20.96C251.822 22.816 253.39 24.384 255.246 24.384Z" fill="#131313"/>
<path d="M12.9711 24V8.288H18.6671V2.656H0.779125V8.288H6.50713V24H12.9711ZM37.0904 24V12.96C37.0904 10.272 35.5224 8.16 31.9384 8.16C29.2184 8.16 27.5224 9.28 26.6264 10.304V2.656H20.8664V24H26.6264V14.464C27.1064 13.92 27.7784 13.248 29.0904 13.248C30.4664 13.248 31.3304 13.792 31.3304 15.392V24H37.0904ZM47.8551 24.384C50.1591 24.384 52.9111 23.776 54.4471 22.464L52.0791 18.912C51.3111 19.584 49.3911 20 48.5271 20C46.6391 20 45.5191 19.04 45.1991 18.048H55.6951V16.864C55.6951 11.424 52.2071 8.16 47.6631 8.16C42.6711 8.16 39.2471 11.776 39.2471 16.256C39.2471 21.344 43.0231 24.384 47.8551 24.384ZM50.2231 14.4H45.1351C45.3271 13.696 45.9031 12.544 47.6631 12.544C49.5191 12.544 50.0631 13.728 50.2231 14.4ZM76.5544 24.384C82.1544 24.384 85.0024 20.992 86.2504 18.144L80.6824 15.584C80.1384 17.248 78.4744 18.688 76.5544 18.688C73.4504 18.688 71.3704 16.32 71.3704 13.344C71.3704 10.368 73.4504 8 76.5544 8C78.4744 8 80.1384 9.44 80.6824 11.104L86.2504 8.512C84.9704 5.568 82.1544 2.304 76.5544 2.304C69.8664 2.304 64.8104 6.752 64.8104 13.344C64.8104 19.904 69.8664 24.384 76.5544 24.384ZM93.9069 24V14.528C94.5469 13.76 96.1149 13.44 97.3309 13.44C97.8749 13.44 98.3549 13.504 98.6429 13.6V8.096C96.8829 8.096 94.8669 9.12 93.9069 10.24V8.544H88.1469V24H93.9069ZM108.168 24.384C110.472 24.384 113.224 23.776 114.76 22.464L112.392 18.912C111.624 19.584 109.704 20 108.84 20C106.952 20 105.832 19.04 105.512 18.048H116.008V16.864C116.008 11.424 112.52 8.16 107.976 8.16C102.984 8.16 99.5596 11.776 99.5596 16.256C99.5596 21.344 103.336 24.384 108.168 24.384ZM110.536 14.4H105.448C105.64 13.696 106.216 12.544 107.976 12.544C109.832 12.544 110.376 13.728 110.536 14.4ZM133.863 24V2.656H128.103V10.176C126.887 8.704 125.319 8.16 123.751 8.16C119.943 8.16 116.935 11.136 116.935 16.256C116.935 21.568 120.007 24.384 123.751 24.384C125.319 24.384 126.791 23.84 128.103 22.368V24H133.863ZM125.703 19.296C124.135 19.296 122.823 18.176 122.823 16.256C122.823 14.336 124.135 13.248 125.703 13.248C126.471 13.248 127.559 13.6 128.103 14.272V18.24C127.559 18.912 126.471 19.296 125.703 19.296ZM139.933 7.424C141.725 7.424 143.165 5.984 143.165 4.192C143.165 2.4 141.725 0.959999 139.933 0.959999C138.141 0.959999 136.701 2.4 136.701 4.192C136.701 5.984 138.141 7.424 139.933 7.424ZM142.813 24V8.544H137.053V24H142.813ZM152.518 24.384C154.47 24.384 155.814 23.904 156.422 23.36L155.398 19.008C155.27 19.136 154.758 19.296 154.246 19.296C153.478 19.296 152.966 18.656 152.966 17.856V13.536H156.102V8.544H152.966V4.32H147.206V8.544H144.646V13.536H147.206V19.52C147.206 22.752 149.094 24.384 152.518 24.384ZM177.565 24V8.288H183.261V2.656H165.373V8.288H171.101V24H177.565ZM201.684 24V12.96C201.684 10.272 200.116 8.16 196.532 8.16C193.812 8.16 192.116 9.28 191.22 10.304V2.656H185.46V24H191.22V14.464C191.7 13.92 192.372 13.248 193.684 13.248C195.06 13.248 195.924 13.792 195.924 15.392V24H201.684ZM207.777 7.424C209.569 7.424 211.009 5.984 211.009 4.192C211.009 2.4 209.569 0.959999 207.777 0.959999C205.985 0.959999 204.545 2.4 204.545 4.192C204.545 5.984 205.985 7.424 207.777 7.424ZM210.657 24V8.544H204.897V24H210.657ZM230.09 24V13.024C230.09 10.336 228.522 8.16 224.938 8.16C222.218 8.16 220.522 9.28 219.626 10.304V8.544H213.866V24H219.626V14.464C220.106 13.92 220.778 13.248 222.09 13.248C223.466 13.248 224.33 13.856 224.33 15.456V24H230.09ZM239.799 30.272C243.639 30.272 249.143 29.024 249.143 22.336V8.544H243.383V10.176C242.135 8.704 240.631 8.16 239.031 8.16C235.223 8.16 232.247 10.72 232.247 15.872C232.247 21.152 235.319 23.584 239.031 23.584C240.631 23.584 242.071 23.008 243.383 21.504V22.336C243.383 25.056 241.143 25.568 239.799 25.568C238.135 25.568 236.375 25.056 235.191 23.872L232.759 27.968C234.775 29.568 237.143 30.272 239.799 30.272ZM241.015 18.496C239.447 18.496 238.135 17.76 238.135 15.872C238.135 13.984 239.447 13.248 241.015 13.248C241.751 13.248 242.839 13.6 243.383 14.24V17.504C242.839 18.144 241.751 18.496 241.015 18.496ZM255.246 24.384C257.102 24.384 258.67 22.816 258.67 20.96C258.67 19.104 257.102 17.536 255.246 17.536C253.39 17.536 251.822 19.104 251.822 20.96C251.822 22.816 253.39 24.384 255.246 24.384Z" fill="url(#paint0_linear_816_435)"/>
<defs>
<linearGradient id="paint0_linear_816_435" x1="-2.75925" y1="4.03866" x2="0.958401" y2="48.2932" gradientUnits="userSpaceOnUse">
<stop stop-color="#8A2387"/>
<stop offset="0.526042" stop-color="#E94057"/>
<stop offset="1" stop-color="#FF7A00"/>
<stop offset="1" stop-color="#F27121"/>
</linearGradient>
</defs>
</svg>
