<svg width="48" height="48" viewBox="0 0 48 48" fill="none" xmlns="http://www.w3.org/2000/svg">
<path d="M0.743159 12.9433C1.51672 6.52587 6.53064 1.5437 12.9482 0.770711C16.4945 0.343562 20.4502 0 24 0C27.5498 0 31.5055 0.343562 35.0518 0.770711C41.4694 1.5437 46.4833 6.52587 47.2568 12.9433C47.6711 16.3802 48 20.2147 48 23.7273C48 27.3298 47.6541 31.3496 47.2249 34.9506C46.4539 41.4188 41.4199 46.4668 34.9521 47.2413C31.4315 47.6628 27.5166 48 24 48C20.4834 48 16.5685 47.6628 13.0479 47.2413C6.58008 46.4668 1.54609 41.4188 0.775145 34.9506C0.345942 31.3496 0 27.3297 0 23.7273C0 20.2147 0.328884 16.3802 0.743159 12.9433Z" fill="#1DA1F2"/>
<path d="M35.2375 15.1024C34.2734 15.7825 33.2059 16.3026 32.0762 16.6428C31.4698 15.9456 30.664 15.4515 29.7676 15.2272C28.8713 15.0029 27.9277 15.0593 27.0644 15.3888C26.2012 15.7183 25.4599 16.3049 24.941 17.0694C24.422 17.8339 24.1503 18.7393 24.1627 19.6632V20.67C22.3934 20.7159 20.6402 20.3235 19.0592 19.5278C17.4783 18.732 16.1187 17.5576 15.1015 16.1092C15.1015 16.1092 11.0743 25.1704 20.1355 29.1976C18.062 30.6051 15.592 31.3109 13.0879 31.2113C22.1491 36.2453 33.2239 31.2113 33.2239 19.633C33.223 19.3526 33.1961 19.0728 33.1434 18.7974C34.1709 17.784 34.8961 16.5046 35.2375 15.1024Z" fill="white"/>
</svg>
